# xmcd
#
# Track frame offsets:
#	150
#	12133
#	24015
#	36449
#	48453
#	60047
#	71866
#	83251
#	95624
#	106197
#	116773
#	127854
#	139764
#	152414
#	165609
#	178197
#	192460
#	206935
#	220900
#	231935
#	244087
#	256104
#	268753
#
# Disc length: 3729 seconds
#
# Revision: 0
# Processed by: cddbd v1.5.2PL0 Copyright (c) Steve Scherf et al.
# Submitted via: EasyCDDAExtractor 15.3.0.1
#
DISCID=370e8f17
DTITLE=Atcher Bob - Bob Atcher Vol. 2
DYEAR=1900
DGENRE=
TTITLE0=Atcher Bob - Last Letter
TTITLE1=Atcher Bob - Whisper Goodbye
TTITLE2=Atcher Bob - You Love Me Or You Don't Make Up Your Mind
TTITLE3=Atcher Bob - She's Not My Curly Headed Baby
TTITLE4=Atcher Bob - Face I See At Evening
TTITLE5=Atcher Bob - You Waited Too Long
TTITLE6=Atcher Bob - Are You Sure
TTITLE7=Atcher Bob - I Can't Think Of Love Without You
TTITLE8=Atcher Bob - Two Can Play Your Game
TTITLE9=Atcher Bob - High And Dry
TTITLE10=Atcher Bob - Walk Chicken Walk
TTITLE11=Atcher Bob - Guilty Conscience
TTITLE12=Atcher Bob - Oh Darling
TTITLE13=Atcher Bob - I Found My Cowgird Sweetheart
TTITLE14=Atcher Bob - When The Locust Is In Bloom
TTITLE15=Atcher Bob - Barbara Allen Pt 1
TTITLE16=Atcher Bob - Barbara Allen Pt 2
TTITLE17=Atcher Bob - Red River Valley
TTITLE18=Atcher Bob - Old Smokey
TTITLE19=Atcher Bob - Devilish Mary
TTITLE20=Atcher Bob - Young Rogers The Miller
TTITLE21=Atcher Randy - I'll Be All Smiles Tonight
TTITLE22=Atcher Randy - I Need You Baby
EXTD=
EXTT0=
EXTT1=
EXTT2=
EXTT3=
EXTT4=
EXTT5=
EXTT6=
EXTT7=
EXTT8=
EXTT9=
EXTT10=
EXTT11=
EXTT12=
EXTT13=
EXTT14=
EXTT15=
EXTT16=
EXTT17=
EXTT18=
EXTT19=
EXTT20=
EXTT21=
EXTT22=
PLAYORDER=
